<svg xmlns="http://www.w3.org/2000/svg" xmlns:xlink="http://www.w3.org/1999/xlink" xml:space="preserve" version="1.1"
  style="shape-rendering:geometricPrecision;text-rendering:geometricPrecision;image-rendering:optimizeQuality;"
  viewBox="0 0 333.33 416.66249999999997" x="0px" y="0px" fill-rule="evenodd" clip-rule="evenodd"
  style="fill: url(#paint3_linear_554_21);">
  <defs>
    <style type="text/css">
      .fil0 {
        fill: black;
        fill-rule: nonzero
      }
    </style>
  </defs>
  <defs xmlns="http://www.w3.org/2000/svg">
    <linearGradient id="paint0_linear_554_21" x1="146.104" y1="3.61306" x2="-52.0358" y2="157.841"
      gradientUnits="userSpaceOnUse">
      <stop stop-color="#F2EEE3" />
      <stop offset="0.1129" stop-color="#E2DCCC" />
      <stop offset="0.4516" stop-color="#F7D046" />
      <stop offset="1" stop-color="#F79046" />
    </linearGradient>
    <linearGradient id="paint1_linear_554_21" x1="122.189" y1="42.0029" x2="-53.1972" y2="178.519"
      gradientUnits="userSpaceOnUse">
      <stop stop-color="#F2EEE3" />
      <stop offset="0.1129" stop-color="#E2DCCC" />
      <stop offset="0.4516" stop-color="#F7D046" />
      <stop offset="1" stop-color="#F79046" />
    </linearGradient>
    <linearGradient id="paint2_linear_554_21" x1="112.005" y1="201.635" x2="42.5036" y2="115.948"
      gradientUnits="userSpaceOnUse">
      <stop stop-color="#F2EEE3" />
      <stop offset="0.1129" stop-color="#E2DCCC" />
      <stop offset="0.4516" stop-color="#F7D046" />
      <stop offset="1" stop-color="#F79046" />
    </linearGradient>
    <linearGradient id="paint3_linear_554_21" x1="21.3938" y1="178.455" x2="113.745" y2="103.717"
      gradientUnits="userSpaceOnUse">
      <stop stop-color="#F2EEE3" />
      <stop offset="0.1129" stop-color="#E2DCCC" />
      <stop offset="0.4516" stop-color="#F7D046" />
      <stop offset="1" stop-color="#F79046" />
    </linearGradient>
    <linearGradient id="paint4_linear_554_21" x1="38.2776" y1="155.598" x2="124.51" y2="85.8116"
      gradientUnits="userSpaceOnUse">
      <stop stop-color="#F2EEE3" />
      <stop offset="0.1129" stop-color="#E2DCCC" />
      <stop offset="0.4516" stop-color="#F7D046" />
      <stop offset="1" stop-color="#F79046" />
    </linearGradient>
    <linearGradient id="paint5_linear_554_21" x1="30.4446" y1="266.212" x2="59.0069" y2="172.671"
      gradientUnits="userSpaceOnUse">
      <stop stop-color="#F2EEE3" />
      <stop offset="0.1129" stop-color="#E2DCCC" />
      <stop offset="0.4516" stop-color="#F7D046" />
      <stop offset="1" stop-color="#F79046" />
    </linearGradient>
  </defs>
  <g>
    <path class="fil0"
      d="M166.67 71.54c26.27,0 50.05,10.65 67.26,27.86 17.22,17.21 27.86,40.99 27.86,67.26 0,26.26 -10.65,50.05 -27.86,67.26 -17.21,17.22 -40.99,27.86 -67.26,27.86 -26.26,0 -50.05,-10.65 -67.26,-27.86 -17.22,-17.21 -27.86,-41 -27.86,-67.26 0,-26.27 10.65,-50.05 27.86,-67.26 17.21,-17.22 41,-27.86 67.26,-27.86zm20.55 172.27l-13.52 -13.51c-8,0.88 -16.15,0.12 -23.87,-2.29 -8.76,-2.74 -17,-7.56 -23.91,-14.46 -8.61,-8.61 -13.98,-19.28 -16.09,-30.45 -2.17,-11.45 -0.89,-23.44 3.84,-34.3 1.69,-3.86 6.18,-5.63 10.04,-3.94 0.91,0.39 1.69,0.94 2.35,1.6l0.01 -0.02 28.7 28.7c2.12,2.12 4.93,3.18 7.74,3.18 2.81,0 5.62,-1.06 7.74,-3.18 2.12,-2.12 3.18,-4.93 3.18,-7.74 0,-2.81 -1.06,-5.62 -3.18,-7.74l-28.7 -28.7c-2.99,-2.99 -2.99,-7.83 0,-10.82 0.86,-0.86 1.87,-1.47 2.95,-1.83 10.7,-4.52 22.47,-5.72 33.72,-3.59 11.18,2.12 21.84,7.48 30.45,16.09 6.91,6.91 11.73,15.14 14.46,23.91 2.41,7.72 3.17,15.87 2.29,23.87l16.03 16.03c3.25,-8.7 5.03,-18.11 5.03,-27.94 0,-22.04 -8.93,-42 -23.38,-56.44 -14.44,-14.44 -34.4,-23.38 -56.44,-23.38 -22.04,0 -42,8.93 -56.44,23.38 -14.44,14.44 -23.38,34.4 -23.38,56.44 0,22.04 8.93,42 23.38,56.44 14.44,14.44 34.4,23.38 56.44,23.38 7.11,0 13.99,-0.93 20.55,-2.67zm47.07 -34.72l-22.37 -22.37 0.02 -0.02c-1.7,-1.7 -2.57,-4.19 -2.11,-6.74 1.24,-6.86 0.82,-13.98 -1.28,-20.71 -2.01,-6.43 -5.57,-12.5 -10.7,-17.63 -6.39,-6.39 -14.24,-10.35 -22.44,-11.91 -4.57,-0.86 -9.24,-0.99 -13.83,-0.38l19.5 19.5c5.11,5.11 7.67,11.84 7.67,18.56 0,6.72 -2.56,13.45 -7.67,18.56 -5.11,5.11 -11.84,7.67 -18.56,7.67 -6.72,0 -13.45,-2.56 -18.56,-7.67l-19.5 -19.5c-0.61,4.59 -0.48,9.27 0.39,13.84 1.56,8.2 5.52,16.05 11.91,22.44 5.13,5.13 11.2,8.69 17.63,10.7 6.52,2.04 13.42,2.5 20.09,1.39 2.55,-0.68 5.38,-0.02 7.38,1.98l21.03 21.03c7.51,-3.83 14.34,-8.81 20.24,-14.71 4.23,-4.23 7.98,-8.93 11.19,-14.02zm-38.31 -177.78c8.18,1.76 16.09,4.25 23.66,7.39 7.7,3.19 15.05,7.06 22,11.55l14.33 -14.33c2.99,-2.99 7.83,-2.99 10.82,0l30.63 30.63c2.99,2.99 2.99,7.83 0,10.82l-14.32 14.32c4.48,6.94 8.35,14.3 11.55,21.99 3.14,7.57 5.62,15.48 7.39,23.67l20.24 0c4.23,0 7.65,3.43 7.65,7.65l0 43.32c0,4.23 -3.43,7.65 -7.65,7.65l-20.24 0c-1.76,8.18 -4.25,16.09 -7.39,23.66 -3.19,7.69 -7.06,15.05 -11.55,22l14.33 14.33c2.99,2.99 2.99,7.83 0,10.82l-30.63 30.63c-2.99,2.99 -7.83,2.99 -10.82,0l-14.32 -14.32c-6.94,4.48 -14.3,8.35 -21.99,11.55 -7.57,3.14 -15.48,5.62 -23.67,7.39l0 20.24c0,4.23 -3.43,7.65 -7.65,7.65l-43.32 0c-4.23,0 -7.65,-3.43 -7.65,-7.65l0 -20.24c-8.18,-1.76 -16.09,-4.25 -23.66,-7.39 -7.69,-3.19 -15.05,-7.06 -22,-11.55l-14.33 14.33c-2.99,2.99 -7.83,2.99 -10.82,0l-30.63 -30.63c-2.99,-2.99 -2.99,-7.83 0,-10.82l14.32 -14.32c-4.48,-6.94 -8.35,-14.3 -11.55,-21.99 -3.14,-7.57 -5.62,-15.48 -7.39,-23.67l-20.24 0c-4.23,0 -7.65,-3.43 -7.65,-7.65l0 -43.32c0,-4.23 3.43,-7.65 7.65,-7.65l20.24 0c1.76,-8.18 4.25,-16.09 7.39,-23.67 3.19,-7.7 7.06,-15.05 11.54,-21.99l-14.33 -14.33c-2.99,-2.99 -2.99,-7.83 0,-10.82l30.63 -30.63c2.99,-2.99 7.83,-2.99 10.82,0l14.33 14.33c6.94,-4.48 14.3,-8.36 22,-11.55 7.57,-3.14 15.48,-5.62 23.66,-7.39l0 -20.24c0,-4.23 3.43,-7.65 7.65,-7.65l43.32 0c4.23,0 7.65,3.43 7.65,7.65l0 20.24zm17.8 21.5c-8.33,-3.45 -17.11,-6.02 -26.23,-7.57 -3.86,-0.39 -6.88,-3.65 -6.88,-7.61l0 -18.9 -28.02 0 0 18.9 -0.02 0c0,3.67 -2.65,6.91 -6.38,7.53 -9.3,1.55 -18.24,4.14 -26.71,7.65 -8.51,3.53 -16.53,7.97 -23.93,13.2 -3,2.49 -7.47,2.33 -10.28,-0.49l-13.37 -13.37 -19.81 19.81 13.37 13.37 -0.02 0.02c2.59,2.58 3.02,6.74 0.82,9.82 -5.37,7.52 -9.92,15.69 -13.52,24.38 -3.45,8.33 -6.02,17.11 -7.57,26.24 -0.39,3.86 -3.65,6.87 -7.61,6.87l-18.9 0 0 28.02 18.89 0 0 0.02c3.67,-0 6.91,2.65 7.53,6.38 1.55,9.3 4.14,18.25 7.65,26.72 3.53,8.51 7.97,16.53 13.2,23.93 2.49,3 2.33,7.47 -0.48,10.28l-13.37 13.37 19.81 19.81 13.37 -13.37 0.02 0.01c2.59,-2.59 6.74,-3.01 9.82,-0.82 7.52,5.37 15.7,9.92 24.38,13.52 8.33,3.45 17.11,6.02 26.23,7.57 3.86,0.39 6.88,3.65 6.88,7.61l0 18.9 28.02 0 0 -18.89 0.02 0c-0,-3.67 2.65,-6.91 6.38,-7.53 9.3,-1.55 18.25,-4.14 26.72,-7.65 8.51,-3.53 16.53,-7.97 23.93,-13.2 3,-2.49 7.47,-2.33 10.28,0.48l13.37 13.37 19.81 -19.81 -13.37 -13.37 0.01 -0.02c-2.59,-2.59 -3.01,-6.74 -0.82,-9.82 5.37,-7.52 9.92,-15.7 13.52,-24.38 3.45,-8.33 6.02,-17.11 7.57,-26.23 0.39,-3.86 3.65,-6.88 7.61,-6.88l18.9 0 0 -28.02 -18.89 0 0 -0.02c-3.67,0 -6.91,-2.65 -7.53,-6.38 -1.55,-9.3 -4.14,-18.25 -7.65,-26.72 -3.53,-8.51 -7.97,-16.53 -13.2,-23.93 -2.49,-3 -2.33,-7.47 0.48,-10.28l13.37 -13.37 -19.81 -19.81 -13.37 13.37 -0.02 -0.01c-2.59,2.59 -6.74,3.01 -9.82,0.82 -7.52,-5.37 -15.7,-9.92 -24.38,-13.52z" />
  </g>
</svg>