<svg xmlns="http://www.w3.org/2000/svg" version="1.1" viewBox="-5.0 -10.0 110.0 135.0">
 <path d="m72.746 44.391 2.5703 2.5703c0.60938 0.60937 1.4102 0.91406 2.2109 0.91406 0.80078 0 1.6016-0.30469 2.2109-0.91406l6.832-6.832c1.2188-1.2188 1.2188-3.1992 0-4.418l-2.5703-2.5703c-0.67969-0.67969-1.5938-0.96484-2.4844-0.88672-0.5 0.003906-0.92188-0.082031-1.2188-0.33203-0.64062-0.54297-0.83594-1.6406-0.85938-2.0156-0.003906-0.10547-0.046875-0.19531-0.070312-0.29688-0.019532-0.085937-0.027344-0.17188-0.0625-0.25-0.070313-0.16016-0.16797-0.30078-0.28516-0.42578-0.015625-0.015625-0.023437-0.039063-0.039062-0.054688l-0.011719-0.011718c-0.015625-0.015626-0.03125-0.035157-0.050781-0.050782l-13.324-13.324c-0.15234-0.15234-0.33594-0.27344-0.53516-0.35156-0.32422-0.12891-8.082-3.0742-16.844 1.0078-0.60156 0.28125-0.96094 0.91016-0.89453 1.5703 0.066407 0.66016 0.54297 1.207 1.1875 1.3633 4.5312 1.1016 11.242 3.8438 11.984 6.4883 0.078124 0.27734 0.31641 1.125-1.0859 2.5273-0.29297 0.29297-0.45703 0.69141-0.45703 1.1055s0.16406 0.8125 0.45703 1.1055l0.085938 0.085937-10.344 10.344-11.434-11.52c1.1641-4.4062-0.10547-9.1367-3.3203-12.348-2.2695-2.2695-5.2891-3.5977-8.5-3.7344-1.293-0.074219-2.418 0.66797-2.9336 1.8438-0.53516 1.2148-0.27734 2.6016 0.65234 3.5312l4.6484 4.6641-1.1953 4.5156-4.5234 1.1719-4.6406-4.6406c-0.92969-0.92969-2.3164-1.1875-3.5312-0.65234-1.1758 0.51563-1.8984 1.668-1.8438 2.9336 0.13672 3.2109 1.4648 6.2266 3.7344 8.5 3.2109 3.2109 7.9414 4.4805 12.426 3.3047l8.793 8.793-0.0625 0.0625c-0.95312 0.95313-1.1484 2.375-0.60547 3.5312l-21.23 21.23c-1.3125 1.3125-2.0352 3.0547-2.0352 4.9102 0 1.8555 0.72266 3.5977 2.0352 4.9102s3.0547 2.0352 4.9102 2.0352c1.8555 0 3.5977-0.72266 4.9102-2.0352l21.23-21.23c0.42188 0.19531 0.87109 0.30469 1.3242 0.30469 0.80078 0 1.6016-0.30469 2.2109-0.91406l0.058593-0.058594 10.859 10.945c-1.1641 4.4062 0.10547 9.1367 3.3164 12.348 2.2734 2.2695 5.2891 3.5977 8.5 3.7344 0.046875 0 0.089844 0.003906 0.13281 0.003906 1.2109 0 2.3047-0.71484 2.8008-1.8477 0.53516-1.2148 0.27734-2.6016-0.65234-3.5312l-4.6484-4.6641 1.1953-4.5156 4.5195-1.1719 4.6406 4.6406c0.92969 0.92969 2.3164 1.1875 3.5312 0.65234 1.1719-0.51562 1.8984-1.668 1.8438-2.9336-0.13672-3.2109-1.4648-6.2305-3.7344-8.5-3.2109-3.2109-7.9375-4.4805-12.426-3.3047l-13.52-13.52 10.348-10.348 1.5469 1.5469c0.078125 0.078126 0.17578 0.11719 0.26172 0.17578 0.070312 0.046875 0.12891 0.10156 0.20312 0.13672 0.11719 0.050782 0.23438 0.070313 0.35938 0.09375 0.070312 0.015626 0.12891 0.046876 0.20312 0.054688 0.37891 0.019531 1.4766 0.21875 2.0195 0.85938 0.25 0.29688 0.33984 0.71094 0.33203 1.2109-0.078125 0.89063 0.20703 1.8086 0.88672 2.4883zm1.1406-5.7461c-0.41016-0.47656-0.88672-0.82812-1.3711-1.1016l4.6328-4.6328c0.27344 0.48438 0.625 0.96094 1.1016 1.3711 0.03125 0.027344 0.074219 0.050781 0.10547 0.078125l-4.3906 4.3906c-0.023438-0.03125-0.050782-0.078125-0.078125-0.10547zm10.469-0.72266-6.832 6.832-2.5508-2.5508v-0.046875l6.7617-6.7617c0.027344 0 0.054687-0.003906 0.085937-0.003906l2.5312 2.5312zm-30.367-20.406c4.75-0.94531 8.6016 0.097656 9.6484 0.43359l12.027 12.027-6.0859 6.0859-6.957-6.957c1.2109-1.75 1.1758-3.3047 0.875-4.3828-0.94922-3.3828-5.7188-5.793-9.5078-7.2031zm-26.184 17.777c-3.332 0.88281-6.9102-0.078125-9.3359-2.5078-1.7148-1.7148-2.7188-4-2.7773-6.3633l4.6406 4.6406c0.78906 0.78906 1.9453 1.1055 3.0234 0.82031l4.5-1.1758c1.1016-0.28906 1.9609-1.1484 2.2461-2.25l1.1797-4.5c0.28125-1.0781-0.03125-2.2383-0.82031-3.0234l-4.7031-4.6875c2.4258 0.10547 4.707 1.1055 6.4219 2.8242 2.4258 2.4297 3.3867 6.0039 2.5078 9.3359-0.30078 1.1367 0 2.2891 0.79688 3.0898l11.445 11.445-3.4883 3.4883-0.44141-0.44141c-0.8125-0.8125-1.9609-1.0703-3.0039-0.79688l-9.1016-9.1016c-0.79688-0.79688-1.9531-1.0977-3.0898-0.79688zm19.758 19.684 1.5469 1.5469-1.1641 1.1641-0.35937-0.35938-7.6094-7.6055-0.35547-0.35547 1.1602-1.1641s0.003906 0 0.003906-0.003906l6.7773 6.7773zm-29.781 24.555c-0.71875-0.71875-1.1172-1.6797-1.1172-2.6992s0.39844-1.9805 1.1172-2.6992l21.094-21.094 5.3984 5.3984-3.0312 3.0312-0.95313-0.95703c-1.2266-1.2266-3.2266-1.2266-4.4531 0l-13.273 13.273c-0.59375 0.59375-0.92188 1.3867-0.92188 2.2266 0 0.83984 0.32812 1.6328 0.92188 2.2266l0.95312 0.95312-0.33594 0.33594c-1.4414 1.4414-3.957 1.4453-5.3984 0zm7.9531-2.5508-0.96484-0.98047 13.309-13.273 0.95312 0.95313-13.297 13.297zm42.152-13.074c0.79688 0.80078 1.957 1.0977 3.0898 0.79688 3.332-0.87891 6.9102 0.078125 9.3359 2.5078 1.7148 1.7148 2.7188 3.9961 2.7812 6.3633l-4.6406-4.6406c-0.78906-0.78906-1.9453-1.1016-3.0273-0.82031l-4.5 1.1797c-1.1016 0.28906-1.9609 1.1484-2.2461 2.25l-1.1797 4.5c-0.28125 1.0781 0.03125 2.2383 0.82031 3.0234l4.7031 4.6875c-2.4258-0.10547-4.707-1.1055-6.4219-2.8242-2.4258-2.4258-3.3867-6.0039-2.5078-9.3398 0.29688-1.1328 0-2.2891-0.79688-3.0859l-11.176-11.176c0.27344-1.0391 0.015625-2.1875-0.79688-3l-0.44141-0.44141 3.4883-3.4883 13.52 13.52zm-19.219-12.242-3.0195-3.0195 16.047-16.047 3.0195 3.0195z"/>
<text x="0.0" y="117.5" font-size="5.0" font-weight="bold" font-family="Arbeit Regular, Helvetica, Arial-Unicode, Arial, Sans-serif" fill="#000000">Created by Fourup Corporate</text><text x="0.0" y="122.5" font-size="5.0" font-weight="bold" font-family="Arbeit Regular, Helvetica, Arial-Unicode, Arial, Sans-serif" fill="#000000">from Noun Project</text></svg>