<svg xmlns="http://www.w3.org/2000/svg" version="1.1" viewBox="-5.0 -10.0 110.0 135.0">
 <path d="m93.109 76.172-27.609-27.609 2.375-2.375 2.5469 2.5625c0.35938 0.35938 0.85938 0.5625 1.375 0.5625s1.0156-0.20312 1.3906-0.5625l19.078-19.094c3.9688-3.9531 3.9688-10.391 0-14.359s-10.391-3.9531-14.344 0l-19.094 19.094c-0.76562 0.76562-0.76562 2 0 2.7656l2.5625 2.5469-2.375 2.375-14.344-14.344c-0.625-0.625-0.92188-1.4844-0.8125-2.375 0.09375-0.75 0.64062-1.4688 1.4531-1.9219l8.9219-5.0781c1.3281-0.71875 1.2344-2.5938 0.0625-3.4375-7.4688-7.4531-18.922-8.75-27.859-3.1406-4.2344 2.6719-7.2344 6.8125-8.4531 11.688-0.59375 1.8281-0.5 4.5938-2.6875 5.3125-0.46875 0.15625-1.375 0.34375-2.2344-0.3125-0.8125-0.90625-2.1719-1.2031-3.0938-0.28125l-5.0938 5.1094c-0.76562 0.76562-0.76562 2 0 2.7656l14.922 14.922c0.35938 0.35938 0.85938 0.57812 1.375 0.57812s1.0156-0.21875 1.375-0.57812l5.1094-5.1094c0.76562-0.71875 0.76562-2.0312 0-2.7656-1.0469-1-0.89062-2.8594 0.3125-3.6719 1.1406-0.8125 2.6719-0.6875 3.6562 0.29688l14.875 14.875-21.828 21.812c-0.32812-0.17188-0.71875-0.26562-1.1094-0.21875-0.59375 0.078125-1.1094 0.42188-1.4219 0.92188l-5.9375 9.6875c-0.46875 0.76562-0.34375 1.75 0.29688 2.3906l1.875 1.875c0.375 0.375 0.875 0.57812 1.375 0.57812 0.34375 0 0.70312-0.09375 1.0156-0.28125l9.6875-5.9375c0.5-0.3125 0.84375-0.84375 0.90625-1.4375 0.046875-0.375-0.03125-0.76562-0.20312-1.0938l21.812-21.828 27.625 27.625c1.6719 1.6719 3.8906 2.5938 6.25 2.5938s4.5938-0.92188 6.2656-2.5938 2.5938-3.9062 2.5938-6.2656-0.92188-4.5938-2.5938-6.2656zm-12.422-58.109c2.4375-2.4375 6.3906-2.4375 8.8281 0 2.4219 2.4375 2.4219 6.3906 0 8.8281l-17.719 17.703-1.1719-1.1562 17.703-17.703c1.75-1.7812 1.75-4.6875-0.015625-6.4844-1.7812-1.75-4.6875-1.75-6.4688 0.015625l-17.703 17.688-1.1719-1.1719zm-59.875 68.688 3.3594-5.4688 2.1094 2.125zm69.531-0.8125c-1.8594 1.875-5.125 1.875-7 0l-45.016-45.016 7-7 45.016 45.016c0.9375 0.9375 1.4531 2.1719 1.4531 3.5s-0.51562 2.5625-1.4531 3.5z"/>
<text x="0.0" y="117.5" font-size="5.0" font-weight="bold" font-family="Arbeit Regular, Helvetica, Arial-Unicode, Arial, Sans-serif" fill="#000000">Created by Colourcreatype</text><text x="0.0" y="122.5" font-size="5.0" font-weight="bold" font-family="Arbeit Regular, Helvetica, Arial-Unicode, Arial, Sans-serif" fill="#000000">from Noun Project</text></svg>